<svg xmlns="http://www.w3.org/2000/svg" viewBox="0 0 214.62 66.56"><defs><style>.cls-1{fill:#fff;}.cls-1,.cls-2{fill-rule:evenodd;}.cls-2{fill:#9abd3e;}</style></defs><title>logo_reciclad</title><g id="Layer_2" data-name="Layer 2"><g id="HEADER"><path class="cls-1" d="M120.39,15.43h5.39a1.49,1.49,0,0,1,1.49,1.49v12a1.49,1.49,0,0,1-1.49,1.48h-5.39a1.47,1.47,0,0,1-1.49-1.48v-12a1.52,1.52,0,0,1,1.49-1.49M37.7,12.68h10a.58.58,0,0,1,.57.57v1.57a.57.57,0,0,1-.57.57H38.81a1.51,1.51,0,0,0-1.49,1.48V29a1.51,1.51,0,0,0,1.49,1.48h8.87a.57.57,0,0,1,.57.57v1.57a.58.58,0,0,1-.57.57h-10a3.81,3.81,0,0,1-3.8-3.8V16.48A3.81,3.81,0,0,1,37.7,12.68Zm11.93.6V32.54a.57.57,0,0,0,.57.57h2.28a.57.57,0,0,0,.57-.58V13.28a.57.57,0,0,0-.57-.57H50.2A.57.57,0,0,0,49.63,13.28Zm8.52-.6h10a.58.58,0,0,1,.57.57v1.57a.57.57,0,0,1-.57.57H59.26a1.51,1.51,0,0,0-1.49,1.48V29a1.51,1.51,0,0,0,1.49,1.48h8.87a.57.57,0,0,1,.57.57v1.57a.58.58,0,0,1-.57.57h-10a3.82,3.82,0,0,1-3.81-3.8V16.48A3.82,3.82,0,0,1,58.15,12.68Zm15.22.61V28.93a1.49,1.49,0,0,0,1.5,1.49h5.91a.55.55,0,0,1,.57.57v1.57a.56.56,0,0,1-.57.56h-7a3.9,3.9,0,0,1-3.8-3.8v-16a.57.57,0,0,1,.57-.57h2.27A.57.57,0,0,1,73.37,13.29ZM94.43,25v3.91a1.47,1.47,0,0,1-1.49,1.49H87.55a1.48,1.48,0,0,1-1.48-1.49V25a1.48,1.48,0,0,1,1.48-1.48h5.38A1.47,1.47,0,0,1,94.43,25Zm-.38-12.3h-10a.58.58,0,0,0-.57.57v1.57a.56.56,0,0,0,.57.57h8.87a1.52,1.52,0,0,1,1.49,1.49v3.14a.75.75,0,0,1-.76.76H86.45a3.84,3.84,0,0,0-3.81,3.8v4.71a3.82,3.82,0,0,0,3.81,3.8h7.6a3.81,3.81,0,0,0,3.8-3.8V16.52A3.81,3.81,0,0,0,94.05,12.72Zm8.51,17.69v-15h6.72a1.52,1.52,0,0,1,1.49,1.49v12a1.52,1.52,0,0,1-1.49,1.48ZM99.14,13.29V32.55a.57.57,0,0,0,.57.57h10.68a3.81,3.81,0,0,0,3.8-3.8V16.52a3.81,3.81,0,0,0-3.8-3.8H99.71A.57.57,0,0,0,99.14,13.29Zm36.64-.57h9.68a.58.58,0,0,1,.57.57v1.57a.56.56,0,0,1-.57.57h-8.57a1.52,1.52,0,0,0-1.49,1.49v3.2a1.53,1.53,0,0,0,1.49,1.49h5.64a3.81,3.81,0,0,1,3.8,3.8v3.92a3.81,3.81,0,0,1-3.8,3.8h-9.68a.58.58,0,0,1-.57-.57V31a.57.57,0,0,1,.57-.57h8.57a1.52,1.52,0,0,0,1.49-1.48V25.8a1.52,1.52,0,0,0-1.49-1.49h-5.64a3.81,3.81,0,0,1-3.8-3.8v-4A3.81,3.81,0,0,1,135.78,12.72ZM21.1,33.1H31.94a.58.58,0,0,0,.57-.57V31a.56.56,0,0,0-.57-.57H22.21a1.51,1.51,0,0,1-1.48-1.49v-12a1.46,1.46,0,0,1,1.48-1.49H27.6a1.49,1.49,0,0,1,1.49,1.49v3.17a1.49,1.49,0,0,1-1.49,1.48H24a.58.58,0,0,0-.58.58v1.56a.58.58,0,0,0,.57.57h4.74a3.83,3.83,0,0,0,3.8-3.8v-4a3.81,3.81,0,0,0-3.8-3.8H21.1a3.81,3.81,0,0,0-3.8,3.8V29.3A3.81,3.81,0,0,0,21.1,33.1ZM9.88,15.4H5a1.51,1.51,0,0,0-1.49,1.49v3.92a.76.76,0,0,0,.76.76h6.16a1.51,1.51,0,0,0,1.49-1.48v-3.2a1.51,1.51,0,0,0-1.49-1.49Zm-6-2.71H11.5a3.81,3.81,0,0,1,3.8,3.8v4a3.82,3.82,0,0,1-3,3.72l5.06,8.66a.13.13,0,0,1,0,.1.14.14,0,0,1-.14.14H14.09a1.16,1.16,0,0,1-.82-.34L8.91,25a1.54,1.54,0,0,0-1.29-.75H4.23a.76.76,0,0,0-.76.77V33.1H.05V16.49A3.81,3.81,0,0,1,3.85,12.69Zm99.74,33.92v3.51a1.32,1.32,0,0,1-1.34,1.33H97.42a1.34,1.34,0,0,1-1.34-1.33V46.59a1.34,1.34,0,0,1,1.33-1.33h4.84A1.32,1.32,0,0,1,103.59,46.61ZM0,36.07v17.3a.52.52,0,0,0,.52.51h2a.52.52,0,0,0,.51-.52V36.08a.51.51,0,0,0-.51-.52h-2A.51.51,0,0,0,0,36.07ZM22.07,51.45V38h6a1.36,1.36,0,0,1,1.33,1.34V50.12a1.36,1.36,0,0,1-1.33,1.33ZM19,36.08V53.37a.51.51,0,0,0,.52.51h9.58a3.41,3.41,0,0,0,3.41-3.41V39a3.41,3.41,0,0,0-3.41-3.41H19.51A.51.51,0,0,0,19,36.08Zm44-.52H75.65a.51.51,0,0,1,.51.51v1.41a.51.51,0,0,1-.51.51H70.87V53.36a.52.52,0,0,1-.52.52h-2a.51.51,0,0,1-.51-.51V38H63a.51.51,0,0,1-.52-.51V36.07A.51.51,0,0,1,63,35.56Zm25.76.51v17.3a.52.52,0,0,0,.52.51h2a.51.51,0,0,0,.51-.52V36.08a.51.51,0,0,0-.51-.52h-2A.51.51,0,0,0,88.78,36.07Zm-8.4,17.3v-14A1.33,1.33,0,0,1,81.73,38H87a.5.5,0,0,0,.51-.51V36.07a.51.51,0,0,0-.51-.51H80.72A3.5,3.5,0,0,0,77.31,39v14.4a.51.51,0,0,0,.51.51h2.05A.51.51,0,0,0,80.38,53.37Zm30.5-17.3v14a1.33,1.33,0,0,0,1.34,1.33h5.31a.52.52,0,0,1,.52.52v1.4a.52.52,0,0,1-.52.51h-6.31a3.49,3.49,0,0,1-3.41-3.41V36.08a.51.51,0,0,1,.51-.52h2A.51.51,0,0,1,110.88,36.07Zm26-.51h8.69a.51.51,0,0,1,.51.51v1.41a.5.5,0,0,1-.51.51h-7.69a1.37,1.37,0,0,0-1.34,1.34V42.2a1.37,1.37,0,0,0,1.34,1.34h5.06A3.41,3.41,0,0,1,146.35,47v3.52a3.41,3.41,0,0,1-3.41,3.41h-8.69a.52.52,0,0,1-.51-.51V52a.51.51,0,0,1,.51-.52H142a1.36,1.36,0,0,0,1.33-1.33V47.3A1.36,1.36,0,0,0,142,46h-5.07a3.43,3.43,0,0,1-3.41-3.42V39A3.43,3.43,0,0,1,136.88,35.56ZM17.84,39a3.43,3.43,0,0,0-3.41-3.41H7.6A3.42,3.42,0,0,0,4.19,39v14.4a.52.52,0,0,0,.52.51h2a.52.52,0,0,0,.51-.52v-14A1.33,1.33,0,0,1,8.6,38h4.83a1.34,1.34,0,0,1,1.34,1.34v14a.51.51,0,0,0,.51.51h2a.52.52,0,0,0,.51-.52Zm34-3.41h8.69a.52.52,0,0,1,.51.51v1.41a.5.5,0,0,1-.51.51h-7.7a1.36,1.36,0,0,0-1.33,1.34V42.2a1.36,1.36,0,0,0,1.33,1.34h5.07A3.42,3.42,0,0,1,61.35,47v3.52a3.42,3.42,0,0,1-3.41,3.41H49.25a.51.51,0,0,1-.51-.51V52a.51.51,0,0,1,.5-.52h7.7a1.36,1.36,0,0,0,1.34-1.33V47.3A1.36,1.36,0,0,0,56.94,46H51.88a3.42,3.42,0,0,1-3.41-3.42V39A3.42,3.42,0,0,1,51.88,35.56Zm-4.57,14.9a3.43,3.43,0,0,1-3.41,3.42H37.07a3.43,3.43,0,0,1-3.41-3.42V36.07a.52.52,0,0,1,.52-.51h2a.51.51,0,0,1,.51.52v14a1.33,1.33,0,0,0,1.34,1.34H42.9a1.35,1.35,0,0,0,1.34-1.34v-14a.52.52,0,0,1,.52-.51h2a.51.51,0,0,1,.51.52Zm74.76,3.42h9.73a.52.52,0,0,0,.51-.51V52a.51.51,0,0,0-.51-.52h-8.73a1.36,1.36,0,0,1-1.34-1.33V39.33A1.33,1.33,0,0,1,123.07,38h4.83a1.34,1.34,0,0,1,1.34,1.34v2.85a1.34,1.34,0,0,1-1.33,1.33H126a.52.52,0,0,0-.52.52v1.39a.52.52,0,0,0,.52.52h2.9a3.45,3.45,0,0,0,3.41-3.42V39a3.43,3.43,0,0,0-3.41-3.41h-6.83A3.42,3.42,0,0,0,118.66,39v11.5A3.41,3.41,0,0,0,122.07,53.88ZM103.25,35.56h-9a.51.51,0,0,0-.51.51v1.41a.5.5,0,0,0,.51.51h8a1.37,1.37,0,0,1,1.34,1.34v2.82a.67.67,0,0,1-.68.68H96.42A3.44,3.44,0,0,0,93,46.24v4.23a3.41,3.41,0,0,0,3.41,3.41h6.83a3.42,3.42,0,0,0,3.41-3.41V39A3.43,3.43,0,0,0,103.25,35.56Zm16-22.84h7.61a3.81,3.81,0,0,1,3.8,3.81v12.8a3.81,3.81,0,0,1-3.8,3.8h-7.61a3.81,3.81,0,0,1-3.8-3.8V16.53A3.81,3.81,0,0,1,119.28,12.72Z"/><path class="cls-2" d="M170.84,42.34V24.21a.59.59,0,0,1,.6-.6.58.58,0,0,1,.3.09l15.69,9.05a.59.59,0,0,1,0,1l-15.7,9.06a.59.59,0,0,1-.89-.51m43.36-7.51A3.26,3.26,0,0,1,213,36l-5.61,3.23a1.2,1.2,0,0,1-1.16,0L206,39,178.25,23a.22.22,0,0,1-.08-.3.23.23,0,0,1,.2-.11h4.81a1.2,1.2,0,0,0,1.2-1.2V14.54a.28.28,0,0,1,0-.15.3.3,0,0,1,.41-.11l28.24,16.31A3.1,3.1,0,0,1,214.2,34.83ZM159.22,0a3.19,3.19,0,0,1,1.58.43l5.6,3.24a1.19,1.19,0,0,1,.57,1V37a.22.22,0,0,1-.22.22.22.22,0,0,1-.19-.12L164.14,33a1.2,1.2,0,0,0-1.64-.44L156.56,36a.37.37,0,0,1-.15,0,.3.3,0,0,1-.3-.3V3.1A3.1,3.1,0,0,1,159.22,0Zm41.54,40.79a.29.29,0,0,0-.11-.4l-8-4.61a.6.6,0,0,0-.82.22l-3.94,6.82a1.21,1.21,0,0,0,.44,1.64l2.48,1.42a1.2,1.2,0,0,0,1.19,0l8.63-5A.22.22,0,0,0,200.76,40.79Zm-42.7,9.63a.31.31,0,0,0,.41.12l8-4.61a.59.59,0,0,0,.21-.82l-3.93-6.82a1.21,1.21,0,0,0-1.64-.44l-2.47,1.44a1.19,1.19,0,0,0-.6,1v10A.25.25,0,0,0,158.06,50.42ZM156.53,65a3.21,3.21,0,0,1-.42-1.59V57a1.22,1.22,0,0,1,.6-1l.31-.18,27.72-16a.21.21,0,0,1,.29.08.21.21,0,0,1,0,.23l-2.4,4.16a1.2,1.2,0,0,0,.43,1.64L189,49.32a.38.38,0,0,1,.11.11.3.3,0,0,1-.11.41L160.76,66.15A3.1,3.1,0,0,1,156.53,65Zm14.6-56.38a.3.3,0,0,0-.3.29v9.21a.59.59,0,0,0,.6.6h7.87a1.2,1.2,0,0,0,1.21-1.2l0-2.85a1.21,1.21,0,0,0-.59-1l-8.63-5A.26.26,0,0,0,171.13,8.63Z"/></g></g></svg>