<svg xmlns="http://www.w3.org/2000/svg" viewBox="0 0 458.52 116.87"><defs><style>.cls-1{fill:#9abd3e;}.cls-2{fill:#58595b;}</style></defs><title>logo_novo_gg</title><g id="Layer_2" data-name="Layer 2"><g id="FONDO"><path class="cls-1" d="M116.83,90.39h15.8v5.66h-8.94v4.48h8.44v5.52h-8.44v4.36h8.94v5.77h-15.8Z"/><path class="cls-1" d="M156,99.08c-1.88-2.09-3.68-3.1-6-3.1-4.07,0-6.78,3.1-6.78,7.47,0,4,2.67,7.18,6.78,7.18,2.28,0,4.08-1,6-3.11v7.69a15,15,0,0,1-6.68,1.62c-7.61,0-13.09-5.73-13.09-13.53s5.48-13.52,13.09-13.52A15,15,0,0,1,156,91.4Z"/><path class="cls-1" d="M182.4,112.9a14,14,0,0,1-18.54.86,13.34,13.34,0,0,1-1-20,14,14,0,0,1,19.51,0,13.4,13.4,0,0,1,0,19.12Zm-3-9.56c0-4.18-2.81-7.57-6.74-7.57s-6.75,3.35-6.75,7.57,2.63,7.57,6.75,7.57S179.37,107.56,179.37,103.34Z"/><path class="cls-2" d="M194.15,104.61v11.57h-3V90.4h5.4a21.05,21.05,0,0,1,4.18.3,6.49,6.49,0,0,1,2.32,1A5.81,5.81,0,0,1,205,94.1a8.61,8.61,0,0,1,0,6.8,5.88,5.88,0,0,1-1.93,2.41,6.36,6.36,0,0,1-2.31,1,21,21,0,0,1-4.19.3h-2.41Zm0-2.78h1.55q3.95,0,5.31-.92a3.63,3.63,0,0,0,1.36-3.24A4,4,0,0,0,201,94.2c-.93-.66-2.69-1-5.27-1h-1.55Z"/><path class="cls-2" d="M209.47,116.18V90.4h6.06a18,18,0,0,1,3.79.29,5.74,5.74,0,0,1,2.13,1,5.89,5.89,0,0,1,1.77,2.4,8.39,8.39,0,0,1,.64,3.34,6.24,6.24,0,0,1-1.77,4.81,7.35,7.35,0,0,1-5.19,1.65h-.54l9.84,12.29h-3.89l-9.41-12.29h-.44v12.29Zm3-23.19v8.63h2.35q3.58,0,4.8-.93a3.81,3.81,0,0,0,1.22-3.23A4.24,4.24,0,0,0,219.58,94q-1.25-1-4.77-1Z"/><path class="cls-2" d="M228.77,116.18V90.4h13.6v2.8H231.83v7.4h10.54v2.85H231.83v9.88h10.54v2.85Z"/><path class="cls-2" d="M247.56,116.18V90.4h13.59v2.8H250.62v7.4h10.53v2.85H250.62v12.73Z"/><path class="cls-2" d="M272,89.38l11.73,26.8h-3.33l-3.35-7.91H267l-3.34,7.91h-3.33Zm0,6.78-4.1,9.49h8.2Z"/><path class="cls-2" d="M286.41,116.18V90.4h5.37a22,22,0,0,1,4.18.29A5.83,5.83,0,0,1,300.19,94a7.25,7.25,0,0,1,.67,3.14,5.78,5.78,0,0,1-1,3.42,5.2,5.2,0,0,1-2.85,1.92,5.46,5.46,0,0,1,3.62,2,6.72,6.72,0,0,1,1.33,4.29,8,8,0,0,1-.56,3,7.18,7.18,0,0,1-1.57,2.42,6.11,6.11,0,0,1-2.69,1.51,23.1,23.1,0,0,1-5.39.44Zm3-23.12v8.63h2.38c2.18,0,3.72-.32,4.61-1a3.67,3.67,0,0,0,1.34-3.21,4.2,4.2,0,0,0-1.24-3.47c-.83-.67-2.4-1-4.71-1Zm0,11v9.4h2.38a22.49,22.49,0,0,0,3.53-.19,4.1,4.1,0,0,0,1.73-.67,3.72,3.72,0,0,0,1.25-1.57,5.64,5.64,0,0,0-.09-4.66,3.91,3.91,0,0,0-1.58-1.62,4.42,4.42,0,0,0-1.43-.53,13.91,13.91,0,0,0-2.51-.16H289.4Z"/><path class="cls-2" d="M306.67,116.18V90.4h6.06a18.12,18.12,0,0,1,3.8.29,5.69,5.69,0,0,1,2.12,1,5.91,5.91,0,0,1,1.78,2.4,8.57,8.57,0,0,1,.63,3.34,6.24,6.24,0,0,1-1.77,4.81,7.34,7.34,0,0,1-5.18,1.65h-.55l9.84,12.29h-3.89l-9.4-12.29h-.44v12.29Zm3-23.19v8.63H312c2.4,0,4-.31,4.81-.93A3.81,3.81,0,0,0,318,97.46,4.21,4.21,0,0,0,316.78,94q-1.25-1-4.77-1Z"/><path class="cls-2" d="M326,116.18V90.4h3.06v25.78Z"/><path class="cls-2" d="M356.23,96.56a12.52,12.52,0,0,0-4-3,11,11,0,0,0-4.63-1,10,10,0,0,0-4,.83,10.25,10.25,0,0,0-3.37,2.3,10.37,10.37,0,0,0-2.22,3.43,11.43,11.43,0,0,0-.74,4.18,11.94,11.94,0,0,0,.44,3.31,9.75,9.75,0,0,0,1.32,2.78,10.75,10.75,0,0,0,3.82,3.39,10.69,10.69,0,0,0,9.46.17,12,12,0,0,0,3.86-3v4.07a14.51,14.51,0,0,1-4.13,2.1,14.71,14.71,0,0,1-4.57.72,13.07,13.07,0,0,1-4-.61,13.25,13.25,0,0,1-9.42-12.85,14.28,14.28,0,0,1,1-5.41,13.55,13.55,0,0,1,7.41-7.27,14.53,14.53,0,0,1,9.56-.27,15.9,15.9,0,0,1,4.14,2.11Z"/><path class="cls-2" d="M369.61,89.38l11.73,26.8H378l-3.35-7.91H364.59l-3.34,7.91h-3.33Zm0,6.78-4.1,9.49h8.2Z"/><path class="cls-2" d="M384,116.18V90.4H389a36.73,36.73,0,0,1,7.74.56,10.65,10.65,0,0,1,3.93,1.85A10.79,10.79,0,0,1,404,97.18a16.9,16.9,0,0,1,0,12.23,10.67,10.67,0,0,1-7.22,6.22,29.43,29.43,0,0,1-6.71.55H384Zm3.1-2.89h1.95a34.62,34.62,0,0,0,6.59-.41,7.21,7.21,0,0,0,3-1.42,8.35,8.35,0,0,0,2.42-3.41,14.37,14.37,0,0,0,0-9.54,8.39,8.39,0,0,0-2.43-3.39,7.28,7.28,0,0,0-3.09-1.45,33.35,33.35,0,0,0-6.54-.43H387.1Z"/><path class="cls-2" d="M436.53,103.34a13.28,13.28,0,0,1-1,5.22,13.07,13.07,0,0,1-3,4.35,14.11,14.11,0,0,1-9.78,4,13.92,13.92,0,0,1-5.26-1,14.12,14.12,0,0,1-4.49-2.93,13.34,13.34,0,0,1-3-4.37,13.19,13.19,0,0,1-1-5.2,13.15,13.15,0,0,1,4-9.59,13.64,13.64,0,0,1,4.48-2.91,14.18,14.18,0,0,1,10.56,0,13.68,13.68,0,0,1,4.49,2.91,13,13,0,0,1,3,4.36A13.3,13.3,0,0,1,436.53,103.34ZM422.75,114a10.34,10.34,0,0,0,4-.8,10.73,10.73,0,0,0,3.45-2.33,10.44,10.44,0,0,0,3.1-7.51,10.87,10.87,0,0,0-.8-4.12,10.54,10.54,0,0,0-2.3-3.45,10.5,10.5,0,0,0-7.47-3.1,10.51,10.51,0,0,0-4.07.8,10,10,0,0,0-3.41,2.3,10.46,10.46,0,0,0-2.3,3.47,10.7,10.7,0,0,0-.8,4.1,10.33,10.33,0,0,0,.79,4,10.71,10.71,0,0,0,2.31,3.46,10.88,10.88,0,0,0,3.45,2.34A10.31,10.31,0,0,0,422.75,114Z"/><path class="cls-2" d="M450.91,101.86a8.75,8.75,0,0,1,3.8,2.86,7,7,0,0,1,1.27,4.21,7.58,7.58,0,0,1-2.26,5.73,8.29,8.29,0,0,1-6,2.17,8.2,8.2,0,0,1-5.11-1.56,7.66,7.66,0,0,1-2.78-4.42l2.78-1.38a6.83,6.83,0,0,0,1.86,3.55,4.59,4.59,0,0,0,3.25,1.21,5.29,5.29,0,0,0,3.73-1.33,4.52,4.52,0,0,0,1.42-3.46,4.8,4.8,0,0,0-1-3,7.45,7.45,0,0,0-3-2.15l-3.14-1.34a9,9,0,0,1-3.83-2.77,6.56,6.56,0,0,1-1.26-4,5.8,5.8,0,0,1,2-4.54,7.59,7.59,0,0,1,5.21-1.8,7.83,7.83,0,0,1,4,1,6.64,6.64,0,0,1,2.65,2.91l-2.53,1.62a6.66,6.66,0,0,0-1.94-2.23,4.22,4.22,0,0,0-2.43-.73,4,4,0,0,0-2.83,1,3.81,3.81,0,0,0-.25,5.08,7,7,0,0,0,2.62,1.77Z"/><path class="cls-2" d="M117.71,1.75h20.57L167.82,42c.77,1,3.29,5.58,7.12,13.78a129,129,0,0,1-1.21-15.43V1.75h20.46V80H173.73L144.19,39.61c-.77-1-3.28-5.47-7.11-13.68a130.82,130.82,0,0,1,1.2,15.43V80H117.71Z"/><path class="cls-2" d="M279.09,70a42.42,42.42,0,0,1-56.24,2.62A39.65,39.65,0,0,1,207.64,41,39.66,39.66,0,0,1,219.9,12a42.39,42.39,0,0,1,59.19,0,39.74,39.74,0,0,1,12.15,29A39.84,39.84,0,0,1,279.09,70ZM269.9,41c0-12.69-8.53-23-20.46-23S229,28.23,229,41s8,23,20.46,23C261.58,64,269.9,53.83,269.9,41Z"/><path class="cls-2" d="M292.1,1.75h22.65L330.4,45.52q.5,1.3,2.62,10.5c1.43-6.13,2.41-9.63,2.74-10.5L351.3,1.75H374L341.12,80H324.93Z"/><path class="cls-2" d="M446.37,70a42.42,42.42,0,0,1-56.24,2.62A39.68,39.68,0,0,1,374.92,41a39.66,39.66,0,0,1,12.26-29,42.39,42.39,0,0,1,59.19,0,39.74,39.74,0,0,1,12.15,29A39.84,39.84,0,0,1,446.37,70Zm-9.19-29c0-12.69-8.53-23-20.46-23s-20.46,10.18-20.46,23,8,23,20.46,23C428.87,64,437.18,53.83,437.18,41Z"/><path class="cls-2" d="M.29,71.55v41.79H7V82.82A51.09,51.09,0,0,1,.29,71.55Z"/><path class="cls-1" d="M71.89,98.56.28,25.24,0,48.8H0A48.91,48.91,0,0,0,48.33,98.28Z"/><path class="cls-1" d="M0,.24,71.61,73.56,71.89,50h0A48.91,48.91,0,0,0,23.56.52Z"/><polygon class="cls-2" points="88.41 8.4 88.41 99.99 0.29 7.01 0.29 16.09 6.95 23.16 6.95 23.15 52.74 71.82 53.26 72.36 53.26 72.36 95.07 116.81 95.07 8.4 88.41 8.4"/></g></g></svg>