<svg xmlns="http://www.w3.org/2000/svg" viewBox="0 0 52.58 52.58"><defs><style>.cls-1{fill:#8fb52b;}</style></defs><title>instagram-icon</title><g id="Layer_2" data-name="Layer 2"><g id="Layer_1-2" data-name="Layer 1"><path class="cls-1" d="M31.32,26.29a5,5,0,1,1-5-5A5,5,0,0,1,31.32,26.29Z"/><path class="cls-1" d="M38.06,17.39a4.8,4.8,0,0,0-1.13-1.74,4.68,4.68,0,0,0-1.74-1.13,8.32,8.32,0,0,0-2.8-.52c-1.59-.07-2.07-.09-6.1-.09s-4.51,0-6.1.09a8.32,8.32,0,0,0-2.8.52,5,5,0,0,0-2.87,2.87,8.32,8.32,0,0,0-.52,2.8c-.07,1.59-.09,2.07-.09,6.1s0,4.51.09,6.1a8.32,8.32,0,0,0,.52,2.8,4.68,4.68,0,0,0,1.13,1.74,4.8,4.8,0,0,0,1.74,1.13,8.58,8.58,0,0,0,2.8.52c1.59.07,2.07.08,6.1.08s4.51,0,6.1-.08a8.58,8.58,0,0,0,2.8-.52,5,5,0,0,0,2.87-2.87,8.58,8.58,0,0,0,.52-2.8c.07-1.59.08-2.07.08-6.1s0-4.51-.08-6.1A8.58,8.58,0,0,0,38.06,17.39ZM26.29,34A7.75,7.75,0,1,1,34,26.29,7.75,7.75,0,0,1,26.29,34Zm8.06-14a1.81,1.81,0,1,1,1.81-1.81A1.82,1.82,0,0,1,34.35,20Z"/><path class="cls-1" d="M26.29,0A26.29,26.29,0,1,0,52.58,26.29,26.29,26.29,0,0,0,26.29,0Zm15,32.51a11.1,11.1,0,0,1-.7,3.67,7.72,7.72,0,0,1-4.41,4.41,11.1,11.1,0,0,1-3.67.7c-1.61.08-2.12.09-6.22.09s-4.61,0-6.23-.09a11.09,11.09,0,0,1-3.66-.7,7.31,7.31,0,0,1-2.67-1.74A7.4,7.4,0,0,1,12,36.18a11.07,11.07,0,0,1-.71-3.67c-.07-1.61-.09-2.12-.09-6.22s0-4.62.09-6.23A11.06,11.06,0,0,1,12,16.4,7.72,7.72,0,0,1,16.4,12a11.06,11.06,0,0,1,3.66-.71c1.61-.07,2.13-.09,6.23-.09s4.61,0,6.22.09a11.07,11.07,0,0,1,3.67.71,7.72,7.72,0,0,1,4.41,4.41,11.09,11.09,0,0,1,.7,3.66c.08,1.61.09,2.13.09,6.23S41.37,30.9,41.29,32.51Z"/></g></g></svg>