<svg xmlns="http://www.w3.org/2000/svg" viewBox="0 0 50.79 38.09"><defs><style>.cls-1{fill:#8fb52b;}</style></defs><title>mail-icon</title><g id="Layer_2" data-name="Layer 2"><g id="Layer_1-2" data-name="Layer 1"><path class="cls-1" d="M50.79,31.74A6.22,6.22,0,0,1,50,34.8l-16-17.95L49.8,3a6.28,6.28,0,0,1,1,3.37V31.74ZM25.39,20.11,47.47.8a6.25,6.25,0,0,0-3-.8H6.35a6.25,6.25,0,0,0-3,.8Zm6.16-1.17-5.11,4.48a1.6,1.6,0,0,1-2.09,0l-5.11-4.48L3,37.12a6.26,6.26,0,0,0,3.35,1H44.44a6.28,6.28,0,0,0,3.35-1ZM1,3A6.28,6.28,0,0,0,0,6.35V31.74A6.22,6.22,0,0,0,.82,34.8l16-17.95Z"/></g></g></svg>