<svg xmlns="http://www.w3.org/2000/svg" viewBox="0 0 141 43.73"><defs><style>.cls-1{fill:#fff;}.cls-1,.cls-2{fill-rule:evenodd;}.cls-2{fill:#8bae3e;}</style></defs><title>reciclados-wg-logo</title><g id="Layer_2" data-name="Layer 2"><g id="TEXT"><path class="cls-1" d="M79.09,10.14h3.54a1,1,0,0,1,1,1V19a1,1,0,0,1-1,1H79.09a1,1,0,0,1-1-1V11.12a1,1,0,0,1,1-1M24.77,8.33h6.55a.38.38,0,0,1,.38.37v1a.38.38,0,0,1-.37.38H25.5a1,1,0,0,0-1,1V19a1,1,0,0,0,1,1h5.83a.38.38,0,0,1,.37.38v1a.38.38,0,0,1-.38.37H24.77a2.5,2.5,0,0,1-2.5-2.49V10.83A2.5,2.5,0,0,1,24.77,8.33Zm7.84.39V21.38a.37.37,0,0,0,.37.37h1.5a.37.37,0,0,0,.37-.38V8.73a.37.37,0,0,0-.37-.38H33A.37.37,0,0,0,32.61,8.72Zm5.59-.39h6.56a.38.38,0,0,1,.37.37v1a.37.37,0,0,1-.37.38H38.93a1,1,0,0,0-1,1V19a1,1,0,0,0,1,1h5.83a.37.37,0,0,1,.37.38v1a.38.38,0,0,1-.37.37H38.2a2.51,2.51,0,0,1-2.5-2.49V10.83A2.51,2.51,0,0,1,38.2,8.33Zm10,.4V19a1,1,0,0,0,1,1h3.88a.38.38,0,0,1,.38.38v1a.38.38,0,0,1-.38.37H48.45a2.57,2.57,0,0,1-2.5-2.5V8.73a.39.39,0,0,1,.38-.38h1.49A.38.38,0,0,1,48.2,8.73ZM62,16.44V19a1,1,0,0,1-1,1H57.52a1,1,0,0,1-1-1V16.43a1,1,0,0,1,1-1h3.54A1,1,0,0,1,62,16.44Zm-.25-8.08H55.23a.37.37,0,0,0-.37.37v1a.37.37,0,0,0,.37.38h5.83a1,1,0,0,1,1,1v2.07a.5.5,0,0,1-.5.5H56.79a2.52,2.52,0,0,0-2.49,2.5v3.09a2.51,2.51,0,0,0,2.49,2.5h5a2.51,2.51,0,0,0,2.5-2.5V10.86A2.51,2.51,0,0,0,61.79,8.36ZM67.38,20V10.14h4.41a1,1,0,0,1,1,1V19a1,1,0,0,1-1,1ZM65.13,8.73V21.39a.37.37,0,0,0,.38.37h7a2.51,2.51,0,0,0,2.5-2.5v-8.4a2.51,2.51,0,0,0-2.5-2.5h-7A.37.37,0,0,0,65.13,8.73Zm24.08-.37h6.35a.38.38,0,0,1,.38.37v1a.38.38,0,0,1-.37.38H89.93a1,1,0,0,0-1,1v2.1a1,1,0,0,0,1,1h3.71a2.51,2.51,0,0,1,2.5,2.5v2.58a2.51,2.51,0,0,1-2.5,2.5H87.28a.38.38,0,0,1-.37-.38v-1a.36.36,0,0,1,.37-.37h5.63a1,1,0,0,0,1-1V17a1,1,0,0,0-1-1h-3.7a2.5,2.5,0,0,1-2.5-2.49V10.86A2.5,2.5,0,0,1,89.21,8.36ZM13.87,21.75H21a.39.39,0,0,0,.38-.38v-1A.37.37,0,0,0,21,20h-6.4a1,1,0,0,1-1-1v-7.9a1,1,0,0,1,1-1h3.54a1,1,0,0,1,1,1v2.09a1,1,0,0,1-1,1H15.75a.39.39,0,0,0-.38.38v1a.39.39,0,0,0,.38.38h3.11a2.52,2.52,0,0,0,2.5-2.5V10.84a2.51,2.51,0,0,0-2.5-2.5h-5a2.5,2.5,0,0,0-2.5,2.5v8.41A2.51,2.51,0,0,0,13.87,21.75ZM6.49,10.12H3.26a1,1,0,0,0-1,1v2.58a.5.5,0,0,0,.5.5H6.83a1,1,0,0,0,1-1V11.09a1,1,0,0,0-1-1Zm-4-1.78h5a2.5,2.5,0,0,1,2.49,2.5v2.61a2.51,2.51,0,0,1-2,2.45l3.32,5.69a.08.08,0,0,1,0,.06.1.1,0,0,1-.09.1H9.25a.76.76,0,0,1-.53-.23L5.85,16.44A1,1,0,0,0,5,16H2.78a.5.5,0,0,0-.5.5v5.3H0V10.84A2.5,2.5,0,0,1,2.53,8.34ZM68.06,30.62v2.31a.87.87,0,0,1-.88.87H64a.88.88,0,0,1-.88-.87V30.61a.87.87,0,0,1,.88-.87h3.17A.87.87,0,0,1,68.06,30.62ZM0,23.7V35.06a.34.34,0,0,0,.34.34H1.68A.34.34,0,0,0,2,35.06V23.7a.34.34,0,0,0-.34-.34H.34A.34.34,0,0,0,0,23.7ZM14.5,33.8V25h4a.9.9,0,0,1,.88.88v7.09a.89.89,0,0,1-.88.87Zm-2-10.1V35.07a.34.34,0,0,0,.34.33h6.29a2.25,2.25,0,0,0,2.25-2.24V25.61a2.25,2.25,0,0,0-2.25-2.24H12.82A.33.33,0,0,0,12.48,23.7Zm28.92-.34h8.3a.34.34,0,0,1,.33.34v.92a.34.34,0,0,1-.33.34H46.56v10.1a.34.34,0,0,1-.34.34H44.88a.34.34,0,0,1-.34-.34V25H41.4a.34.34,0,0,1-.34-.34V23.7A.34.34,0,0,1,41.4,23.36Zm16.93.34V35.06a.34.34,0,0,0,.34.34H60a.34.34,0,0,0,.34-.34V23.7a.34.34,0,0,0-.34-.34H58.67A.34.34,0,0,0,58.33,23.7ZM52.81,35.07V25.83a.87.87,0,0,1,.88-.87h3.49a.33.33,0,0,0,.34-.34V23.7a.34.34,0,0,0-.34-.34H53a2.3,2.3,0,0,0-2.24,2.25v9.45a.34.34,0,0,0,.34.34h1.34A.34.34,0,0,0,52.81,35.07Zm20-11.37v9.23a.88.88,0,0,0,.89.87h3.49a.34.34,0,0,1,.33.34v.93a.33.33,0,0,1-.33.33H73.07a2.3,2.3,0,0,1-2.24-2.24V23.7a.34.34,0,0,1,.33-.34h1.35A.34.34,0,0,1,72.84,23.7Zm17.09-.34h5.71a.34.34,0,0,1,.33.34v.92a.33.33,0,0,1-.33.34H90.58a.89.89,0,0,0-.88.88v1.88a.89.89,0,0,0,.88.88h3.33a2.25,2.25,0,0,1,2.24,2.24v2.32a2.25,2.25,0,0,1-2.24,2.24H88.2a.34.34,0,0,1-.34-.34v-.92a.34.34,0,0,1,.34-.34h5a.89.89,0,0,0,.88-.87V31.08a.89.89,0,0,0-.88-.88H89.93A2.25,2.25,0,0,1,87.69,28V25.61A2.25,2.25,0,0,1,89.93,23.36ZM11.72,25.61a2.25,2.25,0,0,0-2.24-2.25H5a2.25,2.25,0,0,0-2.24,2.25v9.45a.34.34,0,0,0,.34.34H4.43a.34.34,0,0,0,.34-.34V25.84A.87.87,0,0,1,5.65,25H8.82a.88.88,0,0,1,.88.88v9.22a.34.34,0,0,0,.34.34h1.34a.34.34,0,0,0,.34-.34Zm22.36-2.25h5.71a.34.34,0,0,1,.34.34v.92a.34.34,0,0,1-.34.34h-5a.89.89,0,0,0-.88.88v1.88a.89.89,0,0,0,.88.88h3.32a2.24,2.24,0,0,1,2.24,2.24v2.32a2.24,2.24,0,0,1-2.24,2.24H32.35a.34.34,0,0,1-.33-.34v-.92a.34.34,0,0,1,.33-.34h5.06a.89.89,0,0,0,.88-.87V31.08a.89.89,0,0,0-.88-.88H34.08A2.25,2.25,0,0,1,31.84,28V25.61A2.25,2.25,0,0,1,34.08,23.36Zm-3,9.79a2.25,2.25,0,0,1-2.24,2.25H24.36a2.25,2.25,0,0,1-2.25-2.25V23.7a.34.34,0,0,1,.34-.34H23.8a.34.34,0,0,1,.33.34v9.22a.87.87,0,0,0,.88.88h3.18a.87.87,0,0,0,.87-.88V23.7a.34.34,0,0,1,.34-.34h1.35a.34.34,0,0,1,.33.34ZM80.2,35.4h6.39a.34.34,0,0,0,.33-.34v-.92a.33.33,0,0,0-.33-.34H80.85a.89.89,0,0,1-.88-.87V25.84a.87.87,0,0,1,.88-.88H84a.88.88,0,0,1,.88.88v1.87a.88.88,0,0,1-.88.87H82.78a.35.35,0,0,0-.34.35v.91a.34.34,0,0,0,.34.34h1.9a2.25,2.25,0,0,0,2.24-2.24V25.61a2.24,2.24,0,0,0-2.24-2.25H80.2A2.24,2.24,0,0,0,78,25.61v7.55A2.24,2.24,0,0,0,80.2,35.4Zm-12.37-12H61.94a.34.34,0,0,0-.33.34v.92a.34.34,0,0,0,.33.34h5.24a.89.89,0,0,1,.88.88v1.85a.45.45,0,0,1-.45.45H63.35a2.25,2.25,0,0,0-2.24,2.24v2.78a2.24,2.24,0,0,0,2.24,2.24h4.48a2.25,2.25,0,0,0,2.24-2.24V25.61A2.25,2.25,0,0,0,67.83,23.36Zm10.54-15h5a2.51,2.51,0,0,1,2.5,2.5v8.41a2.51,2.51,0,0,1-2.5,2.5h-5a2.51,2.51,0,0,1-2.5-2.5V10.86A2.5,2.5,0,0,1,78.37,8.36Z"/><path class="cls-2" d="M112.24,27.81V15.91a.39.39,0,0,1,.39-.4.36.36,0,0,1,.2.06l10.31,5.95a.39.39,0,0,1,0,.68l-10.32,5.95a.39.39,0,0,1-.58-.34m28.49-4.93a2.14,2.14,0,0,1-.77.76l-3.68,2.12a.78.78,0,0,1-.77,0l-.2-.12-18.2-10.51a.15.15,0,0,1-.06-.2.16.16,0,0,1,.13-.07h3.16a.79.79,0,0,0,.79-.79V9.55a.16.16,0,0,1,0-.09.2.2,0,0,1,.27-.08L140,20.1A2,2,0,0,1,140.73,22.88ZM104.6,0a2.08,2.08,0,0,1,1,.28l3.68,2.13a.81.81,0,0,1,.37.67V24.33a.15.15,0,0,1-.14.15.15.15,0,0,1-.13-.08l-1.58-2.73a.79.79,0,0,0-1.08-.29l-3.9,2.25a.19.19,0,0,1-.1,0,.2.2,0,0,1-.2-.2V2A2,2,0,0,1,104.6,0Zm27.3,26.8a.21.21,0,0,0-.08-.27l-5.24-3a.38.38,0,0,0-.53.14l-2.59,4.48a.79.79,0,0,0,.29,1.08l1.63.93a.78.78,0,0,0,.78,0l5.67-3.27A.15.15,0,0,0,131.9,26.8Zm-28.06,6.33a.21.21,0,0,0,.27.07l5.24-3a.39.39,0,0,0,.14-.54l-2.58-4.48a.79.79,0,0,0-1.08-.29l-1.62.94a.8.8,0,0,0-.39.68V33A.2.2,0,0,0,103.84,33.13Zm-1,9.58a2,2,0,0,1-.28-1V37.42a.79.79,0,0,1,.4-.66l.2-.12,18.21-10.51a.15.15,0,0,1,.19.06.14.14,0,0,1,0,.15L120,29.07a.8.8,0,0,0,.29,1.08l3.91,2.25a.46.46,0,0,1,.07.07.2.2,0,0,1-.08.27L105.62,43.46A2,2,0,0,1,102.84,42.71Zm9.59-37a.2.2,0,0,0-.2.19v6.05a.39.39,0,0,0,.4.4h5.17a.79.79,0,0,0,.79-.79V9.64a.79.79,0,0,0-.39-.68l-5.67-3.27Z"/></g></g></svg>