<svg xmlns="http://www.w3.org/2000/svg" viewBox="0 0 52.58 52.58"><defs><style>.cls-1{fill:#8fb52b;}</style></defs><title>twitter-icon</title><g id="Layer_2" data-name="Layer 2"><g id="Layer_1-2" data-name="Layer 1"><path class="cls-1" d="M26.29,0A26.29,26.29,0,1,0,52.58,26.29,26.29,26.29,0,0,0,26.29,0Zm12,20.5c0,.26,0,.52,0,.78,0,8-6.07,17.16-17.17,17.16h0a17,17,0,0,1-9.25-2.71,11.36,11.36,0,0,0,1.44.09,12.12,12.12,0,0,0,7.5-2.59A6,6,0,0,1,15.19,29a6,6,0,0,0,1.13.11,5.93,5.93,0,0,0,1.59-.21A6,6,0,0,1,13.07,23V23a6.06,6.06,0,0,0,2.74.75,6,6,0,0,1-1.87-8A17.11,17.11,0,0,0,26.38,22a5.65,5.65,0,0,1-.16-1.37,6,6,0,0,1,10.44-4.13A12.16,12.16,0,0,0,40.49,15a6.06,6.06,0,0,1-2.65,3.33,11.83,11.83,0,0,0,3.46-.95A12.27,12.27,0,0,1,38.29,20.5Z"/></g></g></svg>